<svg width="30" height="40" viewBox="0 0 30 40" fill="none" xmlns="http://www.w3.org/2000/svg">
<g clip-path="url(#clip0)">
<path d="M14.6997 15.2543C15.553 16.7324 14.4864 18.58 12.7798 18.58H2.22023C0.513642 18.58 -0.552975 16.7323 0.300319 15.2543L5.58009 6.10858C6.43338 4.63047 8.56662 4.63047 9.41991 6.10858L14.6997 15.2543Z" fill="#00CD81"/>
<path d="M17.5801 27.5285C18.4334 26.0505 20.5666 26.0505 21.4199 27.5285L26.6997 36.6733C27.553 38.1512 26.4864 39.9987 24.7798 39.9987H14.2202C12.5136 39.9987 11.447 38.1512 12.3003 36.6733L17.5801 27.5285Z" fill="#003E27"/>
<path d="M21.4199 12.4702C20.5666 13.9482 18.4334 13.9482 17.5801 12.4702L12.3003 3.32539C11.447 1.84742 12.5136 0 14.2202 0H24.7798C26.4864 0 27.553 1.84742 26.6997 3.32539L21.4199 12.4702Z" fill="#99EBCD"/>
<path d="M12.7798 22C14.4864 22 15.553 23.8476 14.6997 25.3257L9.41991 34.4714C8.56662 35.9495 6.43338 35.9495 5.58009 34.4714L0.300319 25.3257C-0.552975 23.8476 0.513642 22 2.22023 22H12.7798Z" fill="#007B4D"/>
</g>
</svg>
