<?xml version="1.0" encoding="UTF-8"?>
<svg class="w-auto hidden md:block h-12" width="54" height="48.4" fill="none" version="1.1" viewBox="0 0 54 48.4" xmlns="http://www.w3.org/2000/svg" xmlns:cc="http://creativecommons.org/ns#" xmlns:dc="http://purl.org/dc/elements/1.1/" xmlns:rdf="http://www.w3.org/1999/02/22-rdf-syntax-ns#">
 <metadata>
  <rdf:RDF>
   <cc:Work rdf:about="">
    <dc:format>image/svg+xml</dc:format>
    <dc:type rdf:resource="http://purl.org/dc/dcmitype/StillImage"/>
    <dc:title>Tailwind CSS</dc:title>
   </cc:Work>
  </rdf:RDF>
 </metadata>
 <title>Tailwind CSS</title>
 <path d="m27 8c-7.2 0-11.7 3.6-13.5 10.8 2.7-3.6 5.85-4.95 9.45-4.05 2.054 0.514 3.522 2.004 5.147 3.653 2.647 2.687 5.711 5.797 12.403 5.797 7.2 0 11.7-3.6 13.5-10.8-2.7 3.6-5.85 4.95-9.45 4.05-2.054-0.514-3.522-2.004-5.147-3.653-2.647-2.687-5.711-5.797-12.403-5.797zm-13.5 16.2c-7.2 0-11.7 3.6-13.5 10.8 2.7-3.6 5.85-4.95 9.45-4.05 2.054 0.514 3.522 2.004 5.147 3.653 2.647 2.687 5.711 5.797 12.403 5.797 7.2 0 11.7-3.6 13.5-10.8-2.7 3.6-5.85 4.95-9.45 4.05-2.054-0.514-3.522-2.004-5.147-3.653-2.647-2.687-5.711-5.797-12.403-5.797z" fill="#14b4c6"/>
</svg>
